# xmcd
#
# Track frame offsets:
#	150
#	13491
#	27482
#	38361
#	49115
#	62665
#	75752
#	87858
#	98920
#	109726
#	123155
#	133346
#	146013
#	159041
#	173170
#	183946
#	198661
#	210234
#	225458
#	240370
#
# Disc length: 3391 seconds
#
# Revision: 0
# Processed by: cddbd v1.5.2PL0 Copyright (c) Steve Scherf et al.
# Submitted via: EasyCDDAExtractor 16.0.6.1
#
DISCID=f80d3d14
DTITLE=Τσαουσάκης Πρόδρομος - Τραγούδια 45 στροφές-Τσαουσάκης Πρόδρομος 2
DYEAR=2000
DGENRE=Λαϊκή
TTITLE0=Τσαουσάκης Πρόδρομος - Δεν εγνώρισα το γέλιο [1963,  Πρόδρομος Τσαουσά
TTITLE0=κης]
TTITLE1=Τσαουσάκης Πρόδρομος-Κανακάρης Θ.-Καρανικόλα Β. - Φασουλάκι-φασουλάκι 
TTITLE1=[1967, Στέφανος Βαρτάνης]
TTITLE2=Τσαουσάκης Πρόδρομος - Γαμήλιο ταξίδι [1963, Ε. Μωραΐτης]
TTITLE3=Τσαουσάκης Πρόδρομος-Γρίλλη Μαρία - Σε ξέγραψα από φίλο μου [1964, Δημ
TTITLE3=ήτρης Γκούτης]
TTITLE4=Τσαουσάκης Πρόδρομος - Μιά μικρούλα στην Αθήνα [1967, Πρόδρομος Τσαουσ
TTITLE4=άκης]
TTITLE5=Τσαουσάκης Πρόδρομος-Βιολάντη Ρένα - Δεν θέλω πια να μ' αδικούν [1969,
TTITLE5=Π. Τσαουσάκης-Λ. Μπουρνέλης]
TTITLE6=Τσαουσάκης Πρόδρομος - Έχασα την αγάπη μου [1964, Πρόδρομος Τσαουσάκης
TTITLE6=]
TTITLE7=Τσαουσάκης Πρόδρομος - Με φάγανε τα νοίκια [1966, Πρόδρομος Τσαουσάκης
TTITLE7=Λ. Μπουρνέλης]
TTITLE8=Τσαουσάκης Πρόδρομος-Διαμάντη Λίτσα - Ας είχα τα παιδιά μου [1966, Πρό
TTITLE8=δρομος Τσαουσάκης-Λ. Μπουρνέλης]
TTITLE9=Τσαουσάκης Πρόδρομος - Καλή μου σκίζω τα χαρτιά [1965, Π. Τσαουσάκης-Λ
TTITLE9=Μπουρνέλης]
TTITLE10=Τσαουσάκης Πρόδρομος-Γρίλλη Μαρία - Εκεί που είσαι ήμουνα [1964, Δημή
TTITLE10=τρης Γκούτης]
TTITLE11=Τσαουσάκης Πρόδρομος - Μέρα νύχτα στη δουλειά [1965, Π. Τσαουσάκης-Λ.
TTITLE11=Μπουρνέλης]
TTITLE12=Τσαουσάκης Πρόδρομος - Εσύ είσαι η αιτία του κακού [1965, Π. Τσαουσάκ
TTITLE12=ης-Λ. Μπουρνέλης]
TTITLE13=Τσαουσάκης Πρόδρομος - Ποιος μού χτυπάει την πόρτα [1965, Θεόδ. Δερβε
TTITLE13=νιώτης-Κώστας Βίρβος]
TTITLE14=Τσαουσάκης Πρόδρομος - Τρία χρόνια σ' αγαπούσα [1965, Ε. Μωραΐτης]
TTITLE15=Τσαουσάκης Πρόδρομος - Μιά μέρα σαν πεθάνω [1965, Α. Πρίντεζη]
TTITLE16=Τσαουσάκης Πρόδρομος-Διαμάντη Λίτσα - Φταίνε τα μάτια μιάς μικρής [19
TTITLE16=67, Πρόδρομος Τσαουσάκης-Χρ. Μίγκος]
TTITLE17=Τσαουσάκης Πρόδρομος-Καλδάρας Απόστολος - Μέσ' στης χήρας την ταβέρνα
TTITLE17=[1959, Απόστολος Καλδάρας]
TTITLE18=Τσαουσάκης Πρόδρομος - Το καλό παιδί [1966, Πρόδρομος Τσαουσάκης-Χρ. 
TTITLE18=Μίγκος]]
TTITLE19=Τσαουσάκης Πρόδρομος-Διαμάντη Λίτσα - Του καμπούρη η καρδιά [1968, Γι
TTITLE19=ώργος Μητσάκης]
EXTD=
EXTT0=
EXTT1=
EXTT2=
EXTT3=
EXTT4=
EXTT5=
EXTT6=
EXTT7=
EXTT8=
EXTT9=
EXTT10=
EXTT11=
EXTT12=
EXTT13=
EXTT14=
EXTT15=
EXTT16=
EXTT17=
EXTT18=
EXTT19=
PLAYORDER=
